<?xml version="1.0" encoding="utf-8"?>
<!-- Generator: Adobe Illustrator 24.1.0, SVG Export Plug-In . SVG Version: 6.00 Build 0)  -->
<svg version="1.1" id="Layer_1" xmlns="http://www.w3.org/2000/svg" xmlns:xlink="http://www.w3.org/1999/xlink" x="0px" y="0px"
	 viewBox="0 0 283.5 64.7" style="enable-background:new 0 0 283.5 64.7;" xml:space="preserve">
<style type="text/css">
	.st0{fill:#020203;}
</style>
<g>
	<path class="st0" d="M12.7098,16.6931l-0.3711,1.9792l-0.3711,1.9792l-0.3711,1.9792L11.2254,24.61h2.1648h2.1442h2.1648h2.1648
		l0.3711-1.9792l0.3711-1.9792l0.3711-1.9792l0.3711-1.9792h-2.1648h-2.1648h-2.1442H12.7098z"/>
	<path class="st0" d="M6.8958,50.6079h2.0823h2.0823h2.0823h2.0823l0.8247-5.1336l0.8247-5.1336l0.8247-5.1336l0.8247-5.1336
		h-2.0823h-2.1029h-2.0823h-2.0823l-0.8247,5.1336l-0.8247,5.1336l-0.8247,5.1336L6.8958,50.6079z"/>
	<path class="st0" d="M31.2032,30.1972l0.2474-1.402l0.2474-1.402l0.2474-1.402l0.2474-1.402h3.8554h3.8554h3.8554h3.8554
		l0.3505-1.9792l0.3505-1.9792l0.3505-1.9792l0.3505-1.9792h-5.9789h-5.9789h-5.9789h-5.9789l-1.4844,8.4736l-1.4844,8.4736
		l-1.4844,8.4736l-1.4844,8.4736h2.1442H23.41h2.1029h2.1029l0.536-3.1338l0.536-3.1338l0.536-3.1338l0.536-3.1338h3.4843h3.4843
		h3.5461h3.4843l0.3299-1.9792l0.3299-1.9792l0.3299-1.9792l0.3299-1.9792h-3.4636h-3.4636h-3.4636h-3.4843V30.1972z"/>
	<path class="st0" d="M54.6034,42.4849l1.1339-6.4531l1.1339-6.4531l1.1339-6.4531l1.1339-6.4531h-2.1029h-2.1029h-2.0823H50.748
		l-1.4844,8.4736l-1.4844,8.4736l-1.4844,8.4736l-1.4844,8.4736H50.48h5.6697h5.6697h5.6696l0.3711-2.0205l0.3711-2.0205
		l0.3711-2.0205l0.3711-2.0205H65.386h-3.5873h-3.5873L54.6034,42.4849L54.6034,42.4849z"/>
	<path class="st0" d="M98.3319,24.5894l0.3505-1.9792l0.3505-1.9792l0.3505-1.9792l0.3505-1.9792H93.59h-6.1438h-6.1438h-6.1438
		L73.674,25.146l-1.4844,8.4736l-1.4844,8.4736l-1.4844,8.4736h6.1851h6.1851h6.1851h6.1851l0.3505-1.9792l0.3505-1.9792
		l0.3505-1.9792l0.3505-1.9792h-4.1028h-4.1028h-4.1028H78.952l0.2474-1.4432l0.2474-1.4432l0.2474-1.4432l0.2474-1.4432h3.5667
		h3.5667h3.5667h3.5667l0.3505-1.9586l0.3505-1.9586l0.3505-1.9586l0.3505-1.9586h-3.5667h-3.5255h-3.5667h-3.5667l0.2062-1.1339
		l0.2062-1.1339l0.2062-1.1339l0.2062-1.1339h4.0409h4.0203h4.0203h4.0409V24.5894z"/>
	<path class="st0" d="M119.7528,19.1053l-1.938,2.4328l-1.938,2.4328l-1.938,2.4328l-1.0515-2.4328l-1.0515-2.4328l-2.1235-4.8656
		h-8.8859l1.8349,4.1234l1.8349,4.1234l1.8349,4.1234l1.8349,4.1234l-3.3812,4.3502l-3.4018,4.3502l-3.4018,4.3502l-3.4018,4.3502
		h9.9167l1.9586-2.5359l1.9586-2.5359l1.9586-2.5359l1.9586-2.5359l1.0721,2.5359l1.0721,2.5359l1.0721,2.5359l1.0721,2.5359h8.9065
		l-1.8555-4.2471l-1.8555-4.2471l-1.8555-4.2471l-1.8555-4.2471l2.5977-3.2369l2.5977-3.2369l2.5977-3.2369
		c1.8968-2.3916,3.8141-4.8037,5.7109-7.1953l-9.9167-0.0206L119.7528,19.1053z"/>
	<g>
		<path d="M124.3194,50.5653l5.8037-33.8927h11.6074c2.0034,0,3.4905,0.2685,4.4612,0.8261
			c0.9707,0.537,1.7969,1.4871,2.4991,2.8296c0.6816,1.3425,1.0327,2.8915,1.0327,4.6677c0,2.2926-0.5577,4.4612-1.6523,6.5059
			c-1.0947,2.0447-2.5404,3.4285-4.3166,4.1927c-1.7762,0.7435-3.9242,1.1153-6.4233,1.1153h-6.919l-2.3545,13.7553H124.3194z
			 M131.0525,32.9684h6.0928c2.2099,0,3.8622-0.2685,4.9775-0.8261c1.1153-0.537,2.0241-1.4664,2.7676-2.7676
			c0.7435-1.3012,1.1153-2.7056,1.1153-4.2547c0-1.1773-0.1859-2.1273-0.5783-2.8502c-0.3924-0.7022-0.9088-1.2186-1.5697-1.5077
			c-0.6609-0.2892-1.8588-0.4337-3.5731-0.4337h-7.0636L131.0525,32.9684z"/>
		<path d="M151.892,36.3762c0-6.2168,1.549-11.2562,4.6471-15.1185c2.7676-3.4285,6.1135-5.1634,10.079-5.1634
			c3.3252,0,6.1135,1.3425,8.3647,4.0275s3.3665,6.4026,3.3665,11.1943c0,3.8416-0.7229,7.3114-2.1893,10.4301
			c-1.4664,3.1187-3.3046,5.4732-5.5558,7.0429c-2.2306,1.5697-4.5851,2.3545-7.0429,2.3545c-2.148,0-4.0688-0.5783-5.783-1.7143
			s-3.1187-2.8709-4.2133-5.1841C152.429,41.9321,151.892,39.3091,151.892,36.3762z M155.5477,36.5828
			c0,3.2839,0.8055,5.907,2.4371,7.869s3.5731,2.9328,5.8037,2.9328c1.6936,0,3.3665-0.6196,4.9982-1.8795
			c1.6316-1.2392,3.0154-3.222,4.1514-5.8863c1.1359-2.6643,1.6936-5.5971,1.6936-8.7572c0-3.4285-0.8055-6.1135-2.3958-8.0756
			c-1.5903-1.9621-3.5111-2.9535-5.783-2.9535c-2.623,0-4.9775,1.2805-7.0636,3.8622
			C156.8076,26.8549,155.5477,31.1509,155.5477,36.5828z"/>
		<path d="M185.1238,50.5653l-1.7142-33.8927h3.759l0.6403,16.7501c0.1446,3.6763,0.2272,6.5472,0.2272,8.6745l-0.0206,2.2099
			l3.3252-8.1375l8.4473-19.5177h3.8416l0.9294,19.8069c0.1033,2.4165,0.1859,5.1428,0.2065,8.1789
			c0.2272-0.7642,0.6196-1.9001,1.1566-3.4079c0.9294-2.5611,1.6316-4.3992,2.1067-5.4939l7.931-19.084h3.759l-14.1065,33.8927
			h-3.9861l-0.9501-20.5091c-0.0826-1.7762-0.1446-3.9449-0.2065-6.4646c-0.8055,2.2099-1.4458,3.8829-1.9208,4.9982l-9.604,21.9962
			L185.1238,50.5653L185.1238,50.5653z"/>
		<path d="M217.0544,50.5653l5.8037-33.8927h19.9514l-0.6403,3.8416h-16.2338l-1.8175,10.5953h15.8l-0.6403,3.8416H223.457
			l-2.0241,11.7932h17.3904l-0.6609,3.8416h-21.108V50.5653z"/>
		<path d="M242.9334,50.5653l5.8037-33.8927h11.5248c2.4991,0,4.296,0.2685,5.3906,0.8055c1.0947,0.537,1.9208,1.3425,2.4578,2.3752
			c0.7229,1.4251,1.0946,3.098,1.0946,5.0601c0,2.9535-0.7849,5.2873-2.3339,7.0222s-3.8829,2.8709-6.981,3.3872
			c1.0327,0.9294,1.8382,1.8795,2.3958,2.8915c1.1153,1.9621,2.0034,3.9449,2.6643,5.9689l2.1067,6.382h-4.1514l-1.9621-6.32
			c-0.7435-2.4165-1.5903-4.4405-2.4991-6.0722c-0.599-1.0533-1.1979-1.7762-1.8588-2.1273c-0.6403-0.3511-1.673-0.537-3.1187-0.537
			h-4.2133l-2.5817,15.0565L242.9334,50.5653L242.9334,50.5653z M249.873,31.8324h5.0189c2.7882,0,4.6884-0.1033,5.6797-0.3098
			c0.9914-0.2065,1.8795-0.6196,2.623-1.2186c0.7435-0.599,1.3425-1.3838,1.7762-2.3132c0.4337-0.9501,0.6609-1.9828,0.6609-3.1187
			c0-1.0327-0.1859-1.9001-0.5576-2.6024c-0.3718-0.7022-0.8262-1.1773-1.3838-1.4664c-0.5576-0.2685-1.549-0.4131-2.9742-0.4131
			h-8.9017L249.873,31.8324z"/>
	</g>
</g>
</svg>
