<svg width="30" height="30" viewBox="0 0 30 30" fill="none" xmlns="http://www.w3.org/2000/svg">
<rect width="30" height="30" fill="white"/>
<path d="M30 30H22.5H15H7.5H0V22.5003V15.0005V7.49975V0H7.5H15H22.5H30V7.49975V14.9995V22.4992V30V30ZM0.252287 29.7477H7.62614H15H22.3739H29.7477V22.3741V15.0005V7.62589V0.252279H22.3739H15H7.62614H0.252287V7.62589V14.9995V22.3731V29.7477Z" fill="#4D4D4D"/>
<path d="M27 15.4509V15.2199V14.9889V14.758V14.527C26.924 12.9401 26.5313 11.4254 25.8856 10.0473C25.2399 8.66919 24.3401 7.42776 23.2536 6.38362C22.1671 5.33947 20.8929 4.49356 19.4956 3.90846C18.0983 3.32335 16.5778 3 14.9995 3C13.4213 3 11.9008 3.32335 10.5034 3.90846C9.1061 4.49356 7.83291 5.34043 6.74642 6.3865C5.65993 7.43258 4.76206 8.67593 4.11536 10.0569C3.46866 11.4379 3.07603 12.9555 3 14.5472V14.7782V15.0091V15.2401V15.4711C3.07603 17.058 3.46866 18.5727 4.1144 19.9508C4.76013 21.3289 5.65897 22.5722 6.74546 23.6164C7.83195 24.6605 9.1061 25.5064 10.5034 26.0915C11.9008 26.6767 13.4213 27 14.9995 27C16.5778 27 18.0983 26.6767 19.4956 26.0915C20.8929 25.5064 22.1671 24.6596 23.2536 23.6145C24.3401 22.5693 25.2389 21.325 25.8846 19.9441C26.5304 18.5602 26.924 17.0426 27 15.4509ZM15.0005 26.6709C13.3914 26.6709 11.8575 26.3437 10.462 25.7518C9.06568 25.16 7.80789 24.3045 6.75123 23.2478C5.69457 22.1911 4.83905 20.9334 4.2472 19.537C3.65536 18.1406 3.32816 16.6076 3.32816 14.9986C3.32816 13.3895 3.65536 11.8555 4.2472 10.4601C4.83905 9.06472 5.69457 7.80597 6.75123 6.74931C7.80789 5.69265 9.06568 4.83712 10.462 4.24528C11.8584 3.65343 13.3914 3.32624 15.0005 3.32624C16.6095 3.32624 18.1435 3.65343 19.5389 4.24528C20.9353 4.83712 22.1931 5.69265 23.2497 6.74931C24.3064 7.80597 25.1619 9.06376 25.7538 10.4601C26.3456 11.8565 26.6728 13.3895 26.6728 14.9986C26.6728 16.6076 26.3456 18.1416 25.7538 19.537C25.1619 20.9334 24.3064 22.1911 23.2497 23.2478C22.1931 24.3045 20.9353 25.16 19.5389 25.7518C18.1435 26.3437 16.6095 26.6709 15.0005 26.6709Z" fill="#4D4D4D"/>
<rect x="7" y="12" width="17" height="1" fill="#4D4D4D"/>
<rect x="7" y="17" width="4" height="1" fill="#4D4D4D"/>
<rect x="13" y="17" width="4" height="1" fill="#4D4D4D"/>
<rect x="20" y="17" width="4" height="1" fill="#4D4D4D"/>
<path d="M7.62102 11C7.59435 11.0067 7.56268 11.0133 7.52602 11.02C7.49268 11.0267 7.44935 11.03 7.39602 11.03C7.23602 11.03 7.11268 10.9883 7.02602 10.905C6.93935 10.8183 6.89602 10.6833 6.89602 10.5V7.39H7.14602V10.49C7.14602 10.5767 7.16268 10.6483 7.19602 10.705C7.22935 10.7617 7.29935 10.79 7.40602 10.79C7.45602 10.79 7.49435 10.79 7.52102 10.79C7.55102 10.79 7.58435 10.7867 7.62102 10.78V11ZM9.98309 9.75C9.98309 9.58667 9.96475 9.43333 9.92809 9.29C9.89142 9.14667 9.81642 9.01667 9.70309 8.9C9.63642 8.83333 9.55809 8.78 9.46809 8.74C9.37809 8.7 9.27309 8.68 9.15309 8.68C9.03309 8.68 8.92809 8.7 8.83809 8.74C8.74809 8.78 8.66975 8.83333 8.60309 8.9C8.48975 9.01667 8.41475 9.14667 8.37809 9.29C8.34142 9.43333 8.32309 9.58667 8.32309 9.75C8.32309 9.91333 8.34142 10.0667 8.37809 10.21C8.41475 10.3533 8.48975 10.4833 8.60309 10.6C8.66975 10.6667 8.74809 10.72 8.83809 10.76C8.92809 10.8 9.03309 10.82 9.15309 10.82C9.27309 10.82 9.37809 10.8 9.46809 10.76C9.55809 10.72 9.63642 10.6667 9.70309 10.6C9.81642 10.4833 9.89142 10.3533 9.92809 10.21C9.96475 10.0667 9.98309 9.91333 9.98309 9.75ZM10.2381 9.75C10.2381 9.96333 10.2114 10.1533 10.1581 10.32C10.1048 10.4867 10.0131 10.635 9.88309 10.765C9.79642 10.8517 9.69142 10.9233 9.56809 10.98C9.44809 11.0367 9.30975 11.065 9.15309 11.065C8.99642 11.065 8.85642 11.0367 8.73309 10.98C8.61309 10.9233 8.50975 10.8517 8.42309 10.765C8.29309 10.635 8.20142 10.4867 8.14809 10.32C8.09475 10.1533 8.06809 9.96333 8.06809 9.75C8.06809 9.53667 8.09475 9.34667 8.14809 9.18C8.20142 9.01333 8.29309 8.865 8.42309 8.735C8.50975 8.64833 8.61309 8.57667 8.73309 8.52C8.85642 8.46333 8.99642 8.435 9.15309 8.435C9.30975 8.435 9.44809 8.46333 9.56809 8.52C9.69142 8.57667 9.79642 8.64833 9.88309 8.735C10.0131 8.865 10.1048 9.01333 10.1581 9.18C10.2114 9.34667 10.2381 9.53667 10.2381 9.75ZM13.3882 11H13.0882L12.3532 8.86L11.6232 11H11.3282L10.7082 8.5H10.9482L11.4882 10.7L12.2282 8.535H12.4932L13.2282 10.68L13.7732 8.5H14.0082L13.3882 11ZM16.6129 11H16.3579L15.3679 8.5H15.6529L16.4929 10.645L17.2979 8.5H17.5629L16.6129 11ZM19.8024 9.75C19.8024 9.58667 19.7841 9.43333 19.7474 9.29C19.7108 9.14667 19.6358 9.01667 19.5224 8.9C19.4558 8.83333 19.3774 8.78 19.2874 8.74C19.1974 8.7 19.0924 8.68 18.9724 8.68C18.8524 8.68 18.7474 8.7 18.6574 8.74C18.5674 8.78 18.4891 8.83333 18.4224 8.9C18.3091 9.01667 18.2341 9.14667 18.1974 9.29C18.1608 9.43333 18.1424 9.58667 18.1424 9.75C18.1424 9.91333 18.1608 10.0667 18.1974 10.21C18.2341 10.3533 18.3091 10.4833 18.4224 10.6C18.4891 10.6667 18.5674 10.72 18.6574 10.76C18.7474 10.8 18.8524 10.82 18.9724 10.82C19.0924 10.82 19.1974 10.8 19.2874 10.76C19.3774 10.72 19.4558 10.6667 19.5224 10.6C19.6358 10.4833 19.7108 10.3533 19.7474 10.21C19.7841 10.0667 19.8024 9.91333 19.8024 9.75ZM20.0574 9.75C20.0574 9.96333 20.0308 10.1533 19.9774 10.32C19.9241 10.4867 19.8324 10.635 19.7024 10.765C19.6158 10.8517 19.5108 10.9233 19.3874 10.98C19.2674 11.0367 19.1291 11.065 18.9724 11.065C18.8158 11.065 18.6758 11.0367 18.5524 10.98C18.4324 10.9233 18.3291 10.8517 18.2424 10.765C18.1124 10.635 18.0208 10.4867 17.9674 10.32C17.9141 10.1533 17.8874 9.96333 17.8874 9.75C17.8874 9.53667 17.9141 9.34667 17.9674 9.18C18.0208 9.01333 18.1124 8.865 18.2424 8.735C18.3291 8.64833 18.4324 8.57667 18.5524 8.52C18.6758 8.46333 18.8158 8.435 18.9724 8.435C19.1291 8.435 19.2674 8.46333 19.3874 8.52C19.5108 8.57667 19.6158 8.64833 19.7024 8.735C19.8324 8.865 19.9241 9.01333 19.9774 9.18C20.0308 9.34667 20.0574 9.53667 20.0574 9.75ZM21.5419 11C21.5152 11.0067 21.4836 11.0133 21.4469 11.02C21.4136 11.0267 21.3702 11.03 21.3169 11.03C21.1569 11.03 21.0336 10.9883 20.9469 10.905C20.8602 10.8183 20.8169 10.6833 20.8169 10.5V7.39H21.0669V10.49C21.0669 10.5767 21.0836 10.6483 21.1169 10.705C21.1502 10.7617 21.2202 10.79 21.3269 10.79C21.3769 10.79 21.4152 10.79 21.4419 10.79C21.4719 10.79 21.5052 10.7867 21.5419 10.78V11ZM23.4134 10.975C23.3434 10.9917 23.2734 11.005 23.2034 11.015C23.1367 11.0283 23.0684 11.035 22.9984 11.035C22.7651 11.035 22.5984 10.9683 22.4984 10.835C22.4017 10.6983 22.3534 10.5217 22.3534 10.305V8.73H21.8534V8.5H22.3534V7.81L22.6034 7.75V8.5H23.3784V8.73H22.6034V10.295C22.6034 10.3683 22.6084 10.4367 22.6184 10.5C22.6317 10.56 22.6534 10.6133 22.6834 10.66C22.7167 10.7033 22.7601 10.7383 22.8134 10.765C22.8667 10.7883 22.9351 10.8 23.0184 10.8C23.0851 10.8 23.1501 10.7967 23.2134 10.79C23.2801 10.78 23.3467 10.7683 23.4134 10.755V10.975Z" fill="#4D4D4D"/>
<path d="M14.5523 22.225C14.5523 22.1183 14.549 22.0083 14.5423 21.895C14.5357 21.7817 14.5207 21.67 14.4973 21.56C14.474 21.45 14.439 21.345 14.3923 21.245C14.3457 21.145 14.2807 21.055 14.1973 20.975C14.1073 20.8883 14.0007 20.8233 13.8773 20.78C13.754 20.7333 13.6257 20.71 13.4923 20.71H12.5773V23.745H13.4923C13.6257 23.745 13.754 23.7233 13.8773 23.68C14.0007 23.6333 14.1073 23.5667 14.1973 23.48C14.2807 23.4 14.3457 23.31 14.3923 23.21C14.439 23.1067 14.474 23 14.4973 22.89C14.5207 22.78 14.5357 22.6683 14.5423 22.555C14.549 22.4417 14.5523 22.3317 14.5523 22.225ZM14.8173 22.225C14.8173 22.3483 14.8123 22.475 14.8023 22.605C14.7957 22.7317 14.7773 22.8583 14.7473 22.985C14.7173 23.1083 14.674 23.2267 14.6173 23.34C14.5607 23.4533 14.484 23.5567 14.3873 23.65C14.2807 23.7533 14.1523 23.8383 14.0023 23.905C13.8523 23.9683 13.6823 24 13.4923 24H12.3173V20.455H13.4923C13.6823 20.455 13.8523 20.4883 14.0023 20.555C14.1523 20.6183 14.2807 20.7017 14.3873 20.805C14.484 20.8983 14.5607 21.0017 14.6173 21.115C14.674 21.2283 14.7173 21.3467 14.7473 21.47C14.7773 21.5933 14.7957 21.72 14.8023 21.85C14.8123 21.9767 14.8173 22.1017 14.8173 22.225ZM18.0074 22.915C17.9941 23.0783 17.9541 23.23 17.8874 23.37C17.8208 23.51 17.7324 23.6317 17.6224 23.735C17.5124 23.8383 17.3824 23.92 17.2324 23.98C17.0858 24.0367 16.9241 24.065 16.7474 24.065C16.5774 24.065 16.4091 24.0317 16.2424 23.965C16.0791 23.8983 15.9358 23.8033 15.8124 23.68C15.7158 23.5833 15.6391 23.4767 15.5824 23.36C15.5291 23.2433 15.4891 23.1233 15.4624 23C15.4358 22.8733 15.4174 22.745 15.4074 22.615C15.4008 22.4817 15.3974 22.3517 15.3974 22.225C15.3974 22.0983 15.4008 21.97 15.4074 21.84C15.4174 21.71 15.4358 21.5817 15.4624 21.455C15.4891 21.3283 15.5291 21.2083 15.5824 21.095C15.6391 20.9783 15.7158 20.8717 15.8124 20.775C15.9358 20.6517 16.0791 20.5567 16.2424 20.49C16.4091 20.4233 16.5774 20.39 16.7474 20.39C16.9241 20.39 17.0858 20.42 17.2324 20.48C17.3824 20.5367 17.5124 20.6167 17.6224 20.72C17.7324 20.8233 17.8208 20.945 17.8874 21.085C17.9541 21.225 17.9941 21.3767 18.0074 21.54H17.7374C17.7274 21.41 17.6958 21.29 17.6424 21.18C17.5891 21.07 17.5191 20.975 17.4324 20.895C17.3491 20.815 17.2491 20.7533 17.1324 20.71C17.0158 20.6667 16.8874 20.645 16.7474 20.645C16.5874 20.645 16.4474 20.6717 16.3274 20.725C16.2074 20.7783 16.0991 20.8533 16.0024 20.95C15.9224 21.0333 15.8591 21.1267 15.8124 21.23C15.7691 21.3333 15.7358 21.4417 15.7124 21.555C15.6924 21.665 15.6791 21.7783 15.6724 21.895C15.6691 22.0083 15.6674 22.1183 15.6674 22.225C15.6674 22.3317 15.6691 22.4433 15.6724 22.56C15.6791 22.6733 15.6941 22.7867 15.7174 22.9C15.7408 23.0133 15.7741 23.1217 15.8174 23.225C15.8641 23.3283 15.9274 23.4217 16.0074 23.505C16.2041 23.7083 16.4508 23.81 16.7474 23.81C16.8874 23.81 17.0158 23.7883 17.1324 23.745C17.2491 23.7017 17.3491 23.64 17.4324 23.56C17.5191 23.48 17.5891 23.385 17.6424 23.275C17.6958 23.165 17.7274 23.045 17.7374 22.915H18.0074Z" fill="#4D4D4D"/>
</svg>
