<svg width="30" height="30" viewBox="0 0 30 30" fill="none" xmlns="http://www.w3.org/2000/svg">
<rect width="30" height="30" fill="white"/>
<path d="M30 30H22.5H15H7.5H0V22.5003V15.0005V7.49975V0H7.5H15H22.5H30V7.49975V14.9995V22.4992V30V30ZM0.252287 29.7477H7.62614H15H22.3739H29.7477V22.3741V15.0005V7.62589V0.252279H22.3739H15H7.62614H0.252287V7.62589V14.9995V22.3731V29.7477Z" fill="#4D4D4D"/>
<path d="M30 22V21.9421V21.8843V21.8264V21.7685C28.8439 21.3235 27.6602 20.9279 26.4529 20.5844C25.2446 20.241 24.0117 19.9507 22.7583 19.7163C21.5049 19.482 20.2279 19.3027 18.9345 19.1822C17.6401 19.0617 16.3282 19 15 19C13.6718 19 12.3589 19.0617 11.0655 19.1822C9.77111 19.3027 8.49515 19.482 7.24173 19.7163C5.98832 19.9507 4.7554 20.2419 3.54708 20.5844C2.33875 20.9279 1.15605 21.3235 0 21.7685V21.8264V21.8843V21.9421V22C1.15503 21.5522 2.33773 21.1546 3.54605 20.8093C4.75335 20.4639 5.98627 20.1717 7.24071 19.9364C8.49515 19.7011 9.77111 19.5199 11.0655 19.3994C12.3599 19.278 13.6728 19.2163 15.002 19.2163C16.3303 19.2163 17.6431 19.278 18.9376 19.3994C20.232 19.5209 21.5079 19.7011 22.7624 19.9364C24.0168 20.1717 25.2487 20.4649 26.457 20.8093C27.6612 21.1546 28.845 21.5522 30 22Z" fill="#4D4D4D"/>
<path d="M9.62592 11.2142H9.99979H15.0004H20.0002H20.3741" stroke="#4D4D4D" stroke-width="0.8" stroke-miterlimit="10"/>
<path d="M10.5663 14.4284L5 11.2142L10.5663 8V14.4284Z" fill="#4D4D4D"/>
<path d="M19.4337 14.4284L25 11.2142L19.4337 8V14.4284Z" fill="#4D4D4D"/>
<path d="M11.2659 27L10.5579 25.392H9.61589V27H8.83589V22.746H10.6299C10.8819 22.746 11.0999 22.784 11.2839 22.86C11.4719 22.932 11.6259 23.03 11.7459 23.154C11.8699 23.274 11.9599 23.414 12.0159 23.574C12.0759 23.73 12.1059 23.894 12.1059 24.066C12.1059 24.354 12.0339 24.604 11.8899 24.816C11.7499 25.024 11.5619 25.172 11.3259 25.26L12.1059 27H11.2659ZM11.3319 24.066C11.3319 23.982 11.3159 23.902 11.2839 23.826C11.2519 23.746 11.2059 23.676 11.1459 23.616C11.0859 23.556 11.0119 23.51 10.9239 23.478C10.8359 23.442 10.7379 23.424 10.6299 23.424H9.60989V24.696H10.6419C10.8619 24.696 11.0319 24.642 11.1519 24.534C11.2719 24.426 11.3319 24.27 11.3319 24.066ZM16.139 24.87C16.139 25.018 16.133 25.168 16.121 25.32C16.113 25.468 16.091 25.614 16.055 25.758C16.019 25.902 15.967 26.042 15.899 26.178C15.835 26.31 15.749 26.432 15.641 26.544C15.501 26.692 15.327 26.806 15.119 26.886C14.915 26.962 14.691 27 14.447 27H12.791V22.746H14.447C14.691 22.746 14.915 22.786 15.119 22.866C15.327 22.942 15.501 23.054 15.641 23.202C15.749 23.314 15.835 23.436 15.899 23.568C15.967 23.7 16.019 23.838 16.055 23.982C16.091 24.126 16.113 24.274 16.121 24.426C16.133 24.574 16.139 24.722 16.139 24.87ZM15.353 24.87C15.353 24.774 15.351 24.672 15.347 24.564C15.343 24.456 15.331 24.35 15.311 24.246C15.291 24.138 15.261 24.036 15.221 23.94C15.181 23.844 15.123 23.758 15.047 23.682C14.975 23.61 14.887 23.552 14.783 23.508C14.683 23.464 14.571 23.442 14.447 23.442H13.565V26.304H14.447C14.571 26.304 14.683 26.282 14.783 26.238C14.887 26.194 14.975 26.136 15.047 26.064C15.123 25.988 15.181 25.902 15.221 25.806C15.261 25.71 15.291 25.61 15.311 25.506C15.331 25.398 15.343 25.29 15.347 25.182C15.351 25.07 15.353 24.966 15.353 24.87ZM20.4145 27V23.964L19.3105 26.94H18.7405L17.6425 23.928V27H16.8925V22.746H17.9365L19.0525 25.776L20.1745 22.746H21.1645V27H20.4145Z" fill="#4D4D4D"/>
</svg>
